<?xml version="1.0" standalone="no"?>
<!DOCTYPE svg PUBLIC "-//W3C//DTD SVG 20010904//EN"
 "http://www.w3.org/TR/2001/REC-SVG-20010904/DTD/svg10.dtd">
<svg version="1.0" xmlns="http://www.w3.org/2000/svg"
 width="298.000000pt" height="169.000000pt" viewBox="0 0 298.000000 169.000000"
 preserveAspectRatio="xMidYMid meet">

<g transform="translate(0.000000,169.000000) scale(0.100000,-0.100000)"
fill="#000000" stroke="none">
<path d="M1135 1665 c-224 -35 -383 -108 -457 -209 -26 -36 -29 -47 -26 -94 5
-62 39 -110 111 -158 302 -206 1008 -182 1231 42 209 208 -140 437 -659 433
-66 -1 -156 -7 -200 -14z"/>
<path d="M2038 1208 c-48 -101 -248 -194 -497 -229 -117 -16 -380 -6 -491 20
-197 45 -337 123 -388 216 -9 16 -11 -5 -12 -94 0 -104 2 -118 25 -157 49 -84
196 -163 370 -199 186 -38 467 -41 515 -4 93 71 122 82 183 66 19 -5 27 -4 27
6 0 21 53 66 91 77 18 6 57 10 86 10 44 0 55 4 72 26 32 40 42 94 39 200 l-3
97 -17 -35z"/>
<path d="M650 792 c0 -130 6 -147 75 -211 108 -100 356 -171 596 -171 l89 0 6
43 c5 32 17 52 49 83 36 35 41 45 37 75 l-4 34 -156 1 c-104 0 -188 6 -247 18
-212 40 -368 118 -426 211 l-19 30 0 -113z"/>
<path d="M1884 723 c-9 -55 -10 -57 -51 -72 -42 -15 -42 -15 -88 18 l-47 33
-33 -32 -34 -33 34 -47 35 -48 -16 -38 c-20 -47 -24 -50 -85 -58 l-49 -7 0
-48 0 -49 58 -7 c55 -6 58 -8 75 -48 l17 -41 -30 -42 c-16 -23 -30 -46 -30
-51 0 -5 13 -22 29 -38 l30 -28 50 32 50 32 39 -20 c37 -19 41 -25 47 -71 l7
-50 48 0 49 0 11 54 c10 50 14 54 52 69 40 16 41 16 84 -15 l44 -32 35 34 34
33 -32 46 -33 46 18 42 c17 40 20 42 73 48 l55 7 0 48 0 48 -52 9 c-48 7 -55
12 -74 48 l-21 40 27 40 c15 22 29 45 33 51 3 6 -9 25 -27 43 l-32 31 -42 -30
c-47 -34 -52 -35 -98 -18 -24 8 -35 19 -39 40 -18 96 -12 88 -65 88 l-48 0 -8
-57z m124 -213 c113 -69 85 -228 -46 -255 -51 -11 -116 26 -142 80 -57 119 76
243 188 175z"/>
<path d="M650 465 c0 -77 4 -116 16 -141 45 -95 213 -182 424 -219 109 -19
290 -30 360 -21 l55 7 0 64 c0 57 -3 65 -23 74 -12 6 -32 26 -43 45 -11 19
-25 36 -32 39 -7 2 -50 5 -97 6 -273 5 -502 79 -609 197 l-51 56 0 -107z"/>
</g>
</svg>
